<region> lovel=1 hivel=15 amp_velcurve_15=1 sample=../samples/cymbals/cy12splash/hnd/ord/cy12splash_hnd_ord_001.wav
<region> lovel=16 hivel=31 amp_velcurve_31=1 sample=../samples/cymbals/cy12splash/hnd/ord/cy12splash_hnd_ord_002.wav
<region> lovel=32 hivel=47 amp_velcurve_47=1 sample=../samples/cymbals/cy12splash/hnd/ord/cy12splash_hnd_ord_003.wav
<region> lovel=48 hivel=63 amp_velcurve_63=1 sample=../samples/cymbals/cy12splash/hnd/ord/cy12splash_hnd_ord_004.wav
<region> lovel=64 hivel=79 amp_velcurve_79=1 sample=../samples/cymbals/cy12splash/hnd/ord/cy12splash_hnd_ord_005.wav
<region> lovel=80 hivel=95 amp_velcurve_95=1 sample=../samples/cymbals/cy12splash/hnd/ord/cy12splash_hnd_ord_006.wav
<region> lovel=96 hivel=111 amp_velcurve_111=1 sample=../samples/cymbals/cy12splash/hnd/ord/cy12splash_hnd_ord_007.wav
<region> lovel=112 hivel=127 amp_velcurve_127=1 sample=../samples/cymbals/cy12splash/hnd/ord/cy12splash_hnd_ord_008.wav
